<svg width="1564" height="984" viewBox="0 0 1564 984" fill="none" xmlns="http://www.w3.org/2000/svg">
<path d="M1331.18 474.259C1331.18 694.784 1087.03 739.351 785.858 739.351C484.682 739.351 240.531 694.784 240.531 474.259C240.531 253.734 484.682 74.9639 785.858 74.9639C1087.03 74.9639 1331.18 253.734 1331.18 474.259Z" fill="#EC7C32"/>
<path d="M760.149 17.2418C772.284 -5.74723 805.21 -5.74727 817.345 17.2417L845.178 69.97C856.546 91.5053 840.932 117.403 816.58 117.403H760.914C736.562 117.403 720.948 91.5053 732.316 69.97L760.149 17.2418Z" fill="#EC7C32"/>
<path d="M610.232 41.6668C617.185 16.6186 649.353 9.59642 666.112 29.4684L704.55 75.0473C720.249 93.6626 710.518 122.295 686.727 127.488L632.341 139.361C608.55 144.554 587.772 122.582 594.285 99.118L610.232 41.6668Z" fill="#EC7C32"/>
<path d="M470.25 83.1659C473.352 57.3565 504.096 45.5714 523.656 62.6938L568.518 101.966C586.841 118.006 581.531 147.777 558.793 156.493L506.814 176.418C484.076 185.134 460.227 166.541 463.133 142.363L470.25 83.1659Z" fill="#EC7C32"/>
<path d="M354.644 159.757C352.961 133.816 381.023 116.593 403.391 129.839L454.694 160.219C475.647 172.626 475.887 202.866 455.133 215.604L407.689 244.723C386.935 257.461 360.081 243.556 358.504 219.256L354.644 159.757Z" fill="#EC7C32"/>
<path d="M269.319 259.584C261.944 234.657 285.503 211.657 310.246 219.629L366.996 237.916C390.174 245.384 397.092 274.823 379.668 291.834L339.835 330.72C322.411 347.731 293.147 340.107 286.237 316.757L269.319 259.584Z" fill="#EC7C32"/>
<path d="M225.79 375.482C210.445 354.498 224.876 324.904 250.858 324.072L310.451 322.165C334.79 321.386 351.224 346.771 340.551 368.659L316.153 418.694C305.48 440.582 275.359 443.266 260.984 423.609L225.79 375.482Z" fill="#EC7C32"/>
<path d="M966.015 41.6668C959.062 16.6186 926.894 9.59642 910.136 29.4684L871.697 75.0473C855.998 93.6626 865.729 122.295 889.52 127.488L943.906 139.361C967.697 144.554 988.475 122.582 981.962 99.118L966.015 41.6668Z" fill="#EC7C32"/>
<path d="M1106 83.1659C1102.89 57.3565 1072.15 45.5714 1052.59 62.6938L1007.73 101.966C989.405 118.006 994.715 147.777 1017.45 156.493L1069.43 176.418C1092.17 185.134 1116.02 166.541 1113.11 142.363L1106 83.1659Z" fill="#EC7C32"/>
<path d="M1221.6 159.757C1223.28 133.816 1195.22 116.593 1172.85 129.839L1121.55 160.219C1100.6 172.626 1100.36 202.866 1121.11 215.604L1168.55 244.723C1189.31 257.461 1216.16 243.556 1217.74 219.256L1221.6 159.757Z" fill="#EC7C32"/>
<path d="M1306.93 259.584C1314.3 234.657 1290.74 211.657 1266 219.629L1209.25 237.916C1186.07 245.384 1179.15 274.823 1196.58 291.834L1236.41 330.72C1253.84 347.731 1283.1 340.107 1290.01 316.757L1306.93 259.584Z" fill="#EC7C32"/>
<path d="M1350.46 375.482C1365.8 354.498 1351.37 324.904 1325.39 324.072L1265.8 322.165C1241.46 321.386 1225.02 346.771 1235.7 368.659L1260.09 418.694C1270.77 440.582 1300.89 443.266 1315.26 423.609L1350.46 375.482Z" fill="#EC7C32"/>
<path d="M584.914 796.534C505.794 785.026 569.33 719.811 610.988 688.643L572.327 632C565.734 634.098 542.297 655.556 501.299 724.607C460.3 793.657 531.568 828.901 572.327 837.892L584.914 796.534Z" fill="#EC7C32"/>
<path d="M983.074 796.534C1062.19 785.026 998.658 719.811 957 688.643L995.661 632C1002.25 634.098 1025.69 655.556 1066.69 724.607C1107.69 793.657 1036.42 828.901 995.661 837.892L983.074 796.534Z" fill="#EC7C32"/>
<path d="M698.69 806.238C652.831 737.223 575.375 767.512 541.536 792.074C491.911 839.977 523.369 892.391 545.301 912.61C627.518 978.119 721.726 940.509 732.394 884.404C733.216 880.077 726.177 878.255 722.564 880.774C702.167 894.996 662.623 881.701 643.279 876.05C622.121 868.123 603.786 839.982 616.326 828.269C627.71 817.636 670.065 813.517 695.357 812.518C698.544 812.392 700.455 808.895 698.69 806.238Z" fill="#EC7C32"/>
<path d="M862.473 815.058C908.332 746.044 985.788 776.333 1019.63 800.894C1069.25 848.797 1037.79 901.211 1015.86 921.43C933.645 986.94 839.437 949.33 828.769 893.225C827.947 888.898 834.986 887.075 838.599 889.594C858.997 903.816 898.54 890.521 917.884 884.871C939.042 876.943 957.377 848.803 944.837 837.089C933.453 826.456 891.098 822.337 865.806 821.339C862.619 821.213 860.708 817.715 862.473 815.058Z" fill="#EC7C32"/>
<path d="M157.538 544.581L389.384 444.72C393.058 443.138 397.283 443.531 400.602 445.764L453.42 481.314C461.096 486.48 460.074 498.078 451.613 501.823L226.195 601.567C222.612 603.153 220.054 606.419 219.373 610.278L189.801 777.933C187.395 791.574 167.497 790.558 166.493 776.743L150.462 556.233C150.099 551.238 152.939 546.562 157.538 544.581Z" fill="#EC7C32"/>
<path d="M157.538 544.581L389.384 444.72C393.058 443.138 397.283 443.531 400.602 445.764L453.42 481.314C461.096 486.48 460.074 498.078 451.613 501.823L226.195 601.567C222.612 603.153 220.054 606.419 219.373 610.278L189.801 777.933C187.395 791.574 167.497 790.558 166.493 776.743L150.462 556.233C150.099 551.238 152.939 546.562 157.538 544.581Z" fill="#EC7C32"/>
<path d="M256.538 643.581L488.384 543.72C492.058 542.138 496.283 542.531 499.602 544.764L552.42 580.314C560.096 585.48 559.074 597.078 550.613 600.823L325.195 700.567C321.612 702.153 319.054 705.419 318.373 709.278L288.801 876.933C286.395 890.574 266.497 889.558 265.493 875.743L249.462 655.233C249.099 650.238 251.939 645.562 256.538 643.581Z" fill="#EC7C32"/>
<path d="M1406.03 537.581L1174.19 437.72C1170.51 436.138 1166.29 436.531 1162.97 438.764L1110.15 474.314C1102.48 479.48 1103.5 491.078 1111.96 494.823L1337.38 594.567C1340.96 596.153 1343.52 599.419 1344.2 603.278L1373.77 770.933C1376.18 784.574 1396.08 783.558 1397.08 769.743L1413.11 549.233C1413.47 544.238 1410.63 539.562 1406.03 537.581Z" fill="#EC7C32"/>
<path d="M1307.03 636.581L1075.19 536.72C1071.51 535.138 1067.29 535.531 1063.97 537.764L1011.15 573.314C1003.48 578.48 1004.5 590.078 1012.96 593.823L1238.38 693.567C1241.96 695.153 1244.52 698.419 1245.2 702.278L1274.77 869.933C1277.18 883.574 1297.08 882.558 1298.08 868.743L1314.11 648.233C1314.47 643.238 1311.63 638.562 1307.03 636.581Z" fill="#EC7C32"/>
<rect width="452.724" height="161.031" transform="translate(550 471)" fill="#EC7C32"/>
<ellipse cx="616.743" cy="551.516" rx="66.7433" ry="80.5157" fill="black"/>
<ellipse cx="935.981" cy="551.516" rx="66.7433" ry="80.5157" fill="black"/>
<ellipse cx="630.515" cy="527.502" rx="23.3072" ry="28.2511" fill="white"/>
<ellipse cx="949.753" cy="527.502" rx="23.3072" ry="28.2511" fill="white"/>
</svg>
